<svg xmlns="http://www.w3.org/2000/svg" viewBox="0 0 100 100" width="100" height="100">
  <defs>
    <clipPath id="circle-clip">
      <circle cx="50" cy="50" r="49"/>
    </clipPath>
  </defs>
  <g clip-path="url(#circle-clip)">
    <rect x="0" y="0"  width="100" height="33" fill="#000000"/>
    <rect x="0" y="33" width="100" height="34" fill="#CE1126"/>
    <rect x="0" y="67" width="100" height="33" fill="#339E35"/>
  </g>
  <circle cx="50" cy="50" r="49" fill="none" stroke="rgba(255,255,255,0.15)" stroke-width="1"/>
  <circle cx="50" cy="22" r="10" fill="#F5A623"/>
  <g fill="none" stroke="#F5A623" stroke-width="2" stroke-linecap="round">
    <line x1="50" y1="8"  x2="50" y2="5"/>
    <line x1="50" y1="38" x2="50" y2="41"/>
    <line x1="36" y1="22" x2="33" y2="22"/>
    <line x1="64" y1="22" x2="67" y2="22"/>
    <line x1="40" y1="12" x2="38" y2="10"/>
    <line x1="60" y1="32" x2="62" y2="34"/>
    <line x1="60" y1="12" x2="62" y2="10"/>
    <line x1="40" y1="32" x2="38" y2="34"/>
  </g>
  <g transform="translate(22, 44)">
    <rect x="2" y="10" width="52" height="38" rx="6" fill="white" opacity="0.95"/>
    <path d="M18 10 C18 -2 38 -2 38 10" fill="none" stroke="white" stroke-width="4.5" stroke-linecap="round" opacity="0.95"/>
    <rect x="8" y="25" width="40" height="4" rx="2" fill="#CE1126" opacity="0.85"/>
    <text x="28" y="43" font-family="Arial, sans-serif" font-weight="900" font-size="14" fill="#339E35" text-anchor="middle" opacity="0.9">K</text>
  </g>
</svg>
